<svg viewBox="0 0 24 24">
  <path color="#a48de3" d="M8 3h-2c-.825 0-1.575.337-2.119.881-.544.544-.881 1.294-.881 2.119v2c0 .825.337 1.575.881 2.119.544.544 1.294.881 2.119.881h2c.825 0 1.575-.337 2.119-.881.544-.544.881-1.294.881-2.119v-2c0-.825-.337-1.575-.881-2.119-.544-.544-1.294-.881-2.119-.881z"></path>
  <path color="#7cc1d6" d="M18 3h-2c-.825 0-1.575.337-2.119.881-.544.544-.881 1.294-.881 2.119v2c0 .825.337 1.575.881 2.119.544.544 1.294.881 2.119.881h2c.825 0 1.575-.337 2.119-.881.544-.544.881-1.294.881-2.119v-2c0-.825-.337-1.575-.881-2.119-.544-.544-1.294-.881-2.119-.881z"></path>
  <path color="#7dbb80" d="M8 13h-2c-.825 0-1.575.337-2.119.881-.544.544-.881 1.294-.881 2.119v2c0 .825.337 1.575.881 2.119.544.544 1.294.881 2.119.881h2c.825 0 1.575-.337 2.119-.881.544-.544.881-1.294.881-2.119v-2c0-.825-.337-1.575-.881-2.119-.544-.544-1.294-.881-2.119-.881z"></path>
  <path color="#76ccac" d="M18 13h-2c-.825 0-1.575.337-2.119.881-.544.544-.881 1.294-.881 2.119v2c0 .825.337 1.575.881 2.119.544.544 1.294.881 2.119.881h2c.825 0 1.575-.337 2.119-.881.544-.544.881-1.294.881-2.119v-2c0-.825-.337-1.575-.881-2.119-.544-.544-1.294-.881-2.119-.881z"></path>
</svg>